<mxfile host="app.diagrams.net" agent="Mozilla/5.0 (Windows NT 10.0; Win64; x64) AppleWebKit/537.36 (KHTML, like Gecko) Chrome/137.0.0.0 Safari/537.36" version="27.1.5">
  <diagram name="Página-1" id="GFGIIy3kMFirvwIQiMGO">
    <mxGraphModel grid="1" page="1" gridSize="10" guides="1" tooltips="1" connect="1" arrows="1" fold="1" pageScale="1" pageWidth="827" pageHeight="1169" math="0" shadow="0">
      <root>
        <mxCell id="0" />
        <mxCell id="1" parent="0" />
        <mxCell id="PuW9h7Kj89ZufICAIegY-1" value="Buscar métrica &#39;node_network_router_capacity_occupation&#39;" style="whiteSpace=wrap;strokeWidth=2;" vertex="1" parent="1">
          <mxGeometry x="200" y="128" width="376" height="78" as="geometry" />
        </mxCell>
        <mxCell id="PuW9h7Kj89ZufICAIegY-2" value="¿Encontró métrica?" style="rhombus;strokeWidth=2;whiteSpace=wrap;" vertex="1" parent="1">
          <mxGeometry x="293" y="256" width="190" height="190" as="geometry" />
        </mxCell>
        <mxCell id="PuW9h7Kj89ZufICAIegY-3" value="Continuar lectura del mensaje" style="whiteSpace=wrap;strokeWidth=2;" vertex="1" parent="1">
          <mxGeometry x="288" y="760" width="200" height="54" as="geometry" />
        </mxCell>
        <mxCell id="PuW9h7Kj89ZufICAIegY-4" value="Extraer y validar valor&#xa;    (lista con elementos)" style="whiteSpace=wrap;strokeWidth=2;" vertex="1" parent="1">
          <mxGeometry x="356" y="519" width="220" height="78" as="geometry" />
        </mxCell>
        <mxCell id="PuW9h7Kj89ZufICAIegY-6" value="usage = float(val) / 100.0" style="whiteSpace=wrap;strokeWidth=2;" vertex="1" parent="1">
          <mxGeometry x="344.5" y="650" width="243" height="54" as="geometry" />
        </mxCell>
        <mxCell id="PuW9h7Kj89ZufICAIegY-7" value="" style="curved=1;startArrow=none;endArrow=block;exitX=0.5;exitY=1.01;entryX=0.5;entryY=0;rounded=0;" edge="1" parent="1" source="PuW9h7Kj89ZufICAIegY-1" target="PuW9h7Kj89ZufICAIegY-2">
          <mxGeometry relative="1" as="geometry">
            <Array as="points" />
          </mxGeometry>
        </mxCell>
        <mxCell id="PuW9h7Kj89ZufICAIegY-8" value="No" style="curved=1;startArrow=none;endArrow=block;exitX=0;exitY=0.85;entryX=0.25;entryY=0;rounded=0;entryDx=0;entryDy=0;" edge="1" parent="1" source="PuW9h7Kj89ZufICAIegY-2" target="PuW9h7Kj89ZufICAIegY-3">
          <mxGeometry relative="1" as="geometry">
            <Array as="points">
              <mxPoint x="290" y="450" />
              <mxPoint x="280" y="630" />
            </Array>
          </mxGeometry>
        </mxCell>
        <mxCell id="PuW9h7Kj89ZufICAIegY-9" value="Sí" style="curved=1;startArrow=none;endArrow=block;exitX=0.8;exitY=1;entryX=0.5;entryY=0;rounded=0;" edge="1" parent="1" source="PuW9h7Kj89ZufICAIegY-2" target="PuW9h7Kj89ZufICAIegY-4">
          <mxGeometry relative="1" as="geometry">
            <Array as="points">
              <mxPoint x="466" y="482" />
            </Array>
          </mxGeometry>
        </mxCell>
        <mxCell id="PuW9h7Kj89ZufICAIegY-10" value="" style="curved=1;startArrow=none;endArrow=block;exitX=0.5;exitY=1;entryX=0.5;entryY=0;rounded=0;entryDx=0;entryDy=0;" edge="1" parent="1" source="PuW9h7Kj89ZufICAIegY-4" target="PuW9h7Kj89ZufICAIegY-6">
          <mxGeometry relative="1" as="geometry">
            <Array as="points" />
            <mxPoint x="466.5" y="647" as="targetPoint" />
          </mxGeometry>
        </mxCell>
        <mxCell id="PuW9h7Kj89ZufICAIegY-12" value="" style="curved=1;startArrow=none;endArrow=block;exitX=0.5;exitY=1;entryX=0.725;entryY=0.022;rounded=0;exitDx=0;exitDy=0;entryDx=0;entryDy=0;entryPerimeter=0;" edge="1" parent="1" source="PuW9h7Kj89ZufICAIegY-6" target="PuW9h7Kj89ZufICAIegY-3">
          <mxGeometry relative="1" as="geometry">
            <Array as="points">
              <mxPoint x="460" y="740" />
            </Array>
          </mxGeometry>
        </mxCell>
        <mxCell id="PuW9h7Kj89ZufICAIegY-14" value="usage = None" style="whiteSpace=wrap;strokeWidth=2;" vertex="1" parent="1">
          <mxGeometry x="310.5" y="20" width="155" height="54" as="geometry" />
        </mxCell>
        <mxCell id="PuW9h7Kj89ZufICAIegY-15" value="" style="curved=1;startArrow=none;endArrow=block;exitX=0.5;exitY=1;entryX=0.5;entryY=0;rounded=0;exitDx=0;exitDy=0;entryDx=0;entryDy=0;" edge="1" parent="1" source="PuW9h7Kj89ZufICAIegY-14" target="PuW9h7Kj89ZufICAIegY-1">
          <mxGeometry relative="1" as="geometry">
            <Array as="points" />
            <mxPoint x="387.80999999999995" y="78" as="sourcePoint" />
            <mxPoint x="387.80999999999995" y="128" as="targetPoint" />
          </mxGeometry>
        </mxCell>
      </root>
    </mxGraphModel>
  </diagram>
</mxfile>
